#!OML:ASF H:\Pregnant\Project 1\Capture day 1\Session 1\femalepreg.ASF
:FULLY-SPECIFIED
:DEGREES
1144
root 5.76855 8.48284 21.8075 -90.9683 -78.8236 57.8092
lowerback 118.909 28.1908 -5.43442
upperback -10.2087 14.0667 5.98306
thorax -29.7073 3.00053 5.36544
lowerneck -33.9846 13.2075 1.11263
upperneck -9.37187 16.2625 -13.1726
head 3.15833 6.82937 -2.46077
rclavicle -4.29375e-014 7.15625e-014
rhumerus 12.5842 36.9363 -76.8266
rradius 43.9969
rwrist 19.7829
rhand -41.3991 -22.103
rfingers 7.12502
rthumb -14.3162 -51.5895
lclavicle -4.29375e-014 7.15625e-014
lhumerus 21.6336 -19.8796 93.2921
lradius 24.184
lwrist 9.86478
lhand -47.7393 -24.4839
lfingers 7.12502
lthumb -20.4179 4.46259
rfemur -34.4618 -24.1053 -8.16849
rtibia 126.936
rfoot -39.6308 36.0512
rtoes 21.2291
lfemur 12.5264 44.7647 40.929
ltibia 113.683
lfoot -15.946 -65.4759
ltoes 43.026
1145
root 5.78339 8.56845 21.7983 -89.3833 -78.849 56.6058
lowerback 118.547 27.9224 -5.512
upperback -10.1868 13.9429 6.04841
thorax -29.7771 3.0017 5.50018
lowerneck -34.0825 13.1585 0.973286
upperneck -9.4334 16.234 -13.2425
head 3.14552 6.80924 -2.46635
rclavicle -1.59028e-014 -3.4191e-014
rhumerus 13.2017 37.2426 -76.5499
rradius 43.5
rwrist 19.5377
rhand -40.7529 -22.042
rfingers 7.12502
rthumb -13.6935 -51.5715
lclavicle -1.59028e-014 -3.4191e-014
lhumerus 22.067 -18.9337 93.3735
lradius 23.7812
lwrist 9.68659
lhand -46.3436 -20.368
lfingers 7.12502
lthumb -19.0761 8.71651
rfemur -34.7128 -23.2786 -6.90543
rtibia 126.229
rfoot -39.4213 34.6791
rtoes 19.4561
lfemur 10.9622 44.9488 38.4975
ltibia 113.088
lfoot -18.4947 -63.7787
ltoes 41.7364
1146
root 5.79949 8.65083 21.7896 -87.3279 -78.9111 55.0772
lowerback 117.936 27.5496 -5.62963
upperback -10.1182 13.7649 6.10634
thorax -29.8223 2.99977 5.63513
lowerneck -34.1847 13.1336 0.876747
upperneck -9.47449 16.2243 -13.3077
head 3.14323 6.79649 -2.47299
rclavicle -2.54444e-014 2.14687e-014
rhumerus 13.7925 37.5451 -76.3131
rradius 43.1077
rwrist 19.2772
rhand -40.0114 -22.0368
rfingers 7.12502
rthumb -12.9788 -51.6131
lclavicle -2.54444e-014 2.14687e-014
lhumerus 22.5627 -17.9972 93.3522
lradius 23.4063
lwrist 9.80474
lhand -44.5467 -16.1403
lfingers 7.12502
lthumb -17.3474 13.1055
rfemur -35.0865 -22.6074 -5.63018
rtibia 125.578
rfoot -39.2442 33.3638
rtoes 17.6445
lfemur 9.2421 45.2065 36.1192
ltibia 112.632
lfoot -21.1242 -62.046
ltoes 40.2298
1147
root 5.81931 8.71674 21.7814 -83.9008 -79.0827 52.5861
lowerback 116.597 26.8963 -5.84714
upperback -9.90098 13.4705 6.15074
thorax -29.7876 2.99579 5.76189
lowerneck -34.272 13.1481 0.867884
upperneck -9.48658 16.2388 -13.3571
head 3.15441 6.79405 -2.48298
rclavicle -5.40694e-014 5.64548e-014
rhumerus 14.3114 37.8409 -76.1849
rradius 42.8274
rwrist 18.9889
rhand -39.1785 -22.0575
rfingers 7.12502
rthumb -12.1758 -51.6831
lclavicle -5.40694e-014 5.64548e-014
lhumerus 23.0921 -17.066 93.2059
lradius 23.0615
lwrist 10.2523
lhand -42.3234 -12.0402
lfingers 7.12502
lthumb -15.2067 17.381
rfemur -35.9061 -22.4329 -4.23343
rtibia 125.138
rfoot -39.1738 32.1423
rtoes 15.8145
lfemur 6.99841 45.7745 33.8996
ltibia 112.599
lfoot -23.9948 -60.3919
ltoes 38.4927
1148
root 5.84666 8.74699 21.7731 -77.6379 -79.4184 48.0551
lowerback 113.821 25.743 -6.24379
upperback -9.31666 12.9935 6.19207
thorax -29.6416 2.99587 5.88217
lowerneck -34.3171 13.2219 1.00421
upperneck -9.46065 16.2845 -13.3785
head 3.18222 6.80588 -2.49984
rclavicle -2.46493e-014 -7.15625e-014
rhumerus 14.6954 38.1222 -76.2627
rradius 42.6653
rwrist 18.6681
rhand -38.2612 -22.0659
rfingers 7.12502
rthumb -11.2912 -51.7419
lclavicle -2.46493e-014 -7.15625e-014
lhumerus 23.6119 -16.1456 92.8954
lradius 22.7489
lwrist 11.0499
lhand -39.7216 -8.25909
lfingers 7.12502
lthumb -12.6994 21.3348
rfemur -37.7052 -23.1935 -2.50289
rtibia 125.133
rfoot -39.283 31.0416
rtoes 13.9686
lfemur 3.58649 47.0027 31.8462
ltibia 113.375
lfoot -27.2631 -58.9276
ltoes 36.5347
1149
root 5.88602 8.71938 21.7637 -66.5143 -79.8276 39.9311
lowerback 108.937 23.7042 -6.76263
upperback -8.34865 12.1652 6.16917
thorax -29.2115 2.97341 5.96677
lowerneck -34.2906 13.3723 1.33732
upperneck -9.38953 16.367 -13.3589
head 3.22838 6.83579 -2.52637
rclavicle -1.11319e-014 2.54444e-014
rhumerus 14.8801 38.3789 -76.6442
rradius 42.6238
rwrist 18.3154
rhand -37.2724 -22.0372
rfingers 7.12502
rthumb -10.3375 -51.7631
lclavicle -1.11319e-014 2.54444e-014
lhumerus 24.0726 -15.2527 92.3777
lradius 22.4712
lwrist 12.1979
lhand -36.8644 -4.91403
lfingers 7.12502
lthumb -9.94382 24.8311
rfemur -41.2528 -25.3288 -0.0809674
rtibia 125.822
rfoot -39.5951 30.076
rtoes 12.1091
lfemur -1.9641 49.3525 29.6805
ltibia 115.357
lfoot -30.9483 -57.7074
ltoes 34.4019
1150
root 5.94038 8.61864 21.7514 -49.0962 -79.8676 27.2456
lowerback 101.325 20.5734 -7.26441
upperback -6.80363 10.8916 6.06686
thorax -28.4766 2.90621 6.02623
lowerneck -34.1714 13.6027 1.88576
upperneck -9.27061 16.4855 -13.2911
head 3.29189 6.88464 -2.56332
rclavicle -6.20208e-014 -3.97569e-015
rhumerus 14.8268 38.6 -77.3783
rradius 42.6956
rwrist 17.9322
rhand -36.2312 -21.9707
rfingers 7.12502
rthumb -9.33289 -51.7441
lclavicle -6.20208e-014 -3.97569e-015
lhumerus 24.433 -14.4202 91.6291
lradius 22.2344
lwrist 13.671
lhand -33.9398 -2.06366
lfingers 7.12502
lthumb -7.12148 27.7965
rfemur -47.545 -29.0724 3.59251
rtibia 127.41
rfoot -40.0136 29.2542
rtoes 10.2887
lfemur -11.1114 53.3071 26.3126
ltibia 118.754
lfoot -34.7055 -56.641
ltoes 32.1826
1151
root 6.00757 8.4517 21.7363 -28.1468 -78.8372 13.0727
lowerback 90.7747 16.3945 -7.47456
upperback -4.70923 9.08746 5.81653
thorax -27.369 2.74072 6.07223
lowerneck -33.9572 13.8954 2.61862
upperneck -9.109 16.6293 -13.176
head 3.36814 6.94853 -2.60848
rclavicle 3.73715e-014 -2.14687e-014
rhumerus 14.5465 38.7742 -78.43
rradius 42.8595
rwrist 17.5126
rhand -35.1653 -21.8917
rfingers 7.12502
rthumb -8.30427 -51.7085
lclavicle 3.73715e-014 -2.14687e-014
lhumerus 24.6748 -13.6931 90.6639
lradius 22.0466
lwrist 15.4076
lhand -31.1736 0.239563
lfingers 7.12502
lthumb -4.45075 30.1728
rfemur -57.7561 -34.0578 9.33921
rtibia 129.9
rfoot -40.2547 28.5566
rtoes 8.59969
lfemur -26.7253 58.7448 18.3284
ltibia 123.321
lfoot -37.5268 -55.2975
ltoes 29.9999
1152
root 6.07784 8.25764 21.7224 -10.1091 -76.6787 3.74672
lowerback 77.4083 11.7799 -7.29693
upperback -1.97365 6.85313 5.34957
thorax -25.9093 2.44725 6.15244
lowerneck -33.6708 14.2154 3.45743
upperneck -8.91666 16.7804 -13.0249
head 3.4502 7.01933 -2.65685
rclavicle 2.54444e-014 7.95139e-016
rhumerus 14.1066 38.8953 -79.6755
rradius 43.0834
rwrist 17.0395
rhand -34.1084 -21.8318
rfingers 7.12502
rthumb -7.28424 -51.6864
lclavicle 2.54444e-014 7.95139e-016
lhumerus 24.8084 -13.114 89.5414
lradius 21.9174
lwrist 17.3025
lhand -28.7832 1.91489
lfingers 7.12502
lthumb -2.14235 31.8839
rfemur -72.7455 -38.6068 18.0074
rtibia 132.944
rfoot -39.8056 27.7834
rtoes 7.14924
lfemur -54.0425 62.3619 -1.21057
ltibia 128.136
lfoot -37.5521 -52.5906
ltoes 28.0356
